HIERARCHY
ROOT hip
{
  OFFSET 0 0 0
  CHANNELS 6 Xposition Yposition Zposition Zrotation Yrotation Xrotation
  JOINT abdomen
  {
    OFFSET 0 20.6881 -0.73152
    CHANNELS 3 Zrotation Xrotation Yrotation
    JOINT chest
    {
      OFFSET 0 11.7043 -0.48768
      CHANNELS 3 Zrotation Xrotation Yrotation
      JOINT neck
      {
        OFFSET 0 22.1894 -2.19456
        CHANNELS 3 Zrotation Xrotation Yrotation
        JOINT head
        {
          OFFSET -0.24384 7.07133 1.2192
          CHANNELS 3 Zrotation Xrotation Yrotation
          JOINT leftEye
          {
            OFFSET 4.14528 8.04674 8.04672
            CHANNELS 3 Zrotation Xrotation Yrotation
            End Site
            {
              OFFSET 1 0 0
            }
          }
          JOINT rightEye
          {
            OFFSET -3.6576 8.04674 8.04672
            CHANNELS 3 Zrotation Xrotation Yrotation
            End Site
            {
              OFFSET 1 0 0
            }
          }
        }
      }
      JOINT rCollar
      {
        OFFSET -2.68224 19.2634 -4.8768
        CHANNELS 3 Zrotation Xrotation Yrotation
        JOINT rShldr
        {
          OFFSET -8.77824 -1.95073 1.46304
          CHANNELS 3 Zrotation Xrotation Yrotation
          JOINT rForeArm
          {
            OFFSET -28.1742 -1.7115 0.48768
            CHANNELS 3 Zrotation Xrotation Yrotation
            JOINT rHand
            {
              OFFSET -22.5879 0.773209 7.07136
              CHANNELS 3 Zrotation Xrotation Yrotation
              JOINT rThumb1
              {
                OFFSET -1.2192 -0.487915 3.41376
                CHANNELS 3 Zrotation Xrotation Yrotation
                JOINT rThumb2
                {
                  OFFSET -3.37035 -0.52449 3.41376
                  CHANNELS 3 Zrotation Xrotation Yrotation
                  End Site
                  {
                    OFFSET -1.78271 -1.18214 1.43049
                  }
                }
              }
              JOINT rIndex1
              {
                OFFSET -7.75947 0.938293 5.60832
                CHANNELS 3 Zrotation Xrotation Yrotation
                JOINT rIndex2
                {
                  OFFSET -2.54057 -0.884171 1.56538
                  CHANNELS 3 Zrotation Xrotation Yrotation
                  End Site
                  {
                    OFFSET -1.62519 -0.234802 1.16502
                  }
                }
              }
              JOINT rMid1
              {
                OFFSET -8.24714 1.18213 3.41376
                CHANNELS 3 Zrotation Xrotation Yrotation
                JOINT rMid2
                {
                  OFFSET -3.10165 -0.590103 1.0647
                  CHANNELS 3 Zrotation Xrotation Yrotation
                  End Site
                  {
                    OFFSET -2.48547 -0.328903 0.83742
                  }
                }
              }
              JOINT rRing1
              {
                OFFSET -8.82822 0.546677 1.51678
                CHANNELS 3 Zrotation Xrotation Yrotation
                JOINT rRing2
                {
                  OFFSET -2.60934 -0.819778 -0.0198488
                  CHANNELS 3 Zrotation Xrotation Yrotation
                  End Site
                  {
                    OFFSET -2.33842 -0.294052 0.168128
                  }
                }
              }
              JOINT rPinky1
              {
                OFFSET -8.27202 -0.0477905 -0.4584
                CHANNELS 3 Zrotation Xrotation Yrotation
                JOINT rPinky2
                {
                  OFFSET -1.82734 -0.647385 -0.700984
                  CHANNELS 3 Zrotation Xrotation Yrotation
                  End Site
                  {
                    OFFSET -1.69225 -0.51767 -0.607171
                  }
                }
              }
            }
          }
        }
      }
      JOINT lCollar
      {
        OFFSET 2.68224 19.2634 -4.8768
        CHANNELS 3 Zrotation Xrotation Yrotation
        JOINT lShldr
        {
          OFFSET 8.77824 -1.95073 1.46304
          CHANNELS 3 Zrotation Xrotation Yrotation
          JOINT lForeArm
          {
            OFFSET 28.1742 -1.7115 0.48768
            CHANNELS 3 Zrotation Xrotation Yrotation
            JOINT lHand
            {
              OFFSET 22.5879 0.773209 7.07136
              CHANNELS 3 Zrotation Xrotation Yrotation
              JOINT lThumb1
              {
                OFFSET 1.2192 -0.487915 3.41376
                CHANNELS 3 Zrotation Xrotation Yrotation
                JOINT lThumb2
                {
                  OFFSET 3.37035 -0.52449 3.41376
                  CHANNELS 3 Zrotation Xrotation Yrotation
                  End Site
                  {
                    OFFSET 1.78271 -1.18214 1.43049
                  }
                }
              }
              JOINT lIndex1
              {
                OFFSET 7.75947 0.938293 5.60832
                CHANNELS 3 Zrotation Xrotation Yrotation
                JOINT lIndex2
                {
                  OFFSET 2.54057 -0.884171 1.56538
                  CHANNELS 3 Zrotation Xrotation Yrotation
                  End Site
                  {
                    OFFSET 1.62519 -0.234802 1.16502
                  }
                }
              }
              JOINT lMid1
              {
                OFFSET 8.24714 1.18213 3.41376
                CHANNELS 3 Zrotation Xrotation Yrotation
                JOINT lMid2
                {
                  OFFSET 3.10165 -0.590103 1.0647
                  CHANNELS 3 Zrotation Xrotation Yrotation
                  End Site
                  {
                    OFFSET 2.48547 -0.328903 0.83742
                  }
                }
              }
              JOINT lRing1
              {
                OFFSET 8.82822 0.546677 1.51678
                CHANNELS 3 Zrotation Xrotation Yrotation
                JOINT lRing2
                {
                  OFFSET 2.60934 -0.819778 -0.0198488
                  CHANNELS 3 Zrotation Xrotation Yrotation
                  End Site
                  {
                    OFFSET 2.33842 -0.294052 0.168128
                  }
                }
              }
              JOINT lPinky1
              {
                OFFSET 8.27202 -0.0477905 -0.4584
                CHANNELS 3 Zrotation Xrotation Yrotation
                JOINT lPinky2
                {
                  OFFSET 1.82734 -0.647385 -0.700984
                  CHANNELS 3 Zrotation Xrotation Yrotation
                  End Site
                  {
                    OFFSET 1.69225 -0.51767 -0.607171
                  }
                }
              }
            }
          }
        }
      }
    }
  }
  JOINT rButtock
  {
    OFFSET -8.77824 4.35084 1.2192
    CHANNELS 3 Zrotation Xrotation Yrotation
    JOINT rThigh
    {
      OFFSET 0 -1.70687 -2.19456
      CHANNELS 3 Zrotation Xrotation Yrotation
      JOINT rShin
      {
        OFFSET 0 -36.8199 0.73152
        CHANNELS 3 Zrotation Xrotation Yrotation
        JOINT rFoot
        {
          OFFSET 0.73152 -45.1104 -5.12064
          CHANNELS 3 Zrotation Xrotation Yrotation
          End Site
          {
            OFFSET -1.1221 -3.69964 12.103
          }
        }
      }
    }
  }
  JOINT lButtock
  {
    OFFSET 8.77824 4.35084 1.2192
    CHANNELS 3 Zrotation Xrotation Yrotation
    JOINT lThigh
    {
      OFFSET 0 -1.70687 -2.19456
      CHANNELS 3 Zrotation Xrotation Yrotation
      JOINT lShin
      {
        OFFSET 0 -36.8199 0.73152
        CHANNELS 3 Zrotation Xrotation Yrotation
        JOINT lFoot
        {
          OFFSET -0.73152 -45.1104 -5.12064
          CHANNELS 3 Zrotation Xrotation Yrotation
          End Site
          {
            OFFSET 1.1221 -3.69964 12.103
          }
        }
      }
    }
  }
}
MOTION
Frames:	5
Frame Time:	0.03333
-1.2673 61.1926 1.5723 88.763934 87.567274 93.088185 -6.010176 9.504776 -86.438817 10.342424 -2.579283 83.254452 -1.330749 23.265243 22.913 -11.81965 -28.581149 -61.380993 14.366061 -5.812499 -43.881416 -0.557154 0.015518 -3.190722 2.515054 5.902289 0.450557 -140.031011 -24.474693 148.860124 -3.617406 -27.615293 -100.717154 163.758735 -33.950814 143.225176 174.911301 -23.340861 93.634559 -53.726206 12.304043 -0.148384 -165.821089 -51.54435 120.76367 -167.9534 -48.008554 128.637349 -83.912328 63.942829 94.798649 -6.91777 -46.329428 -36.309546 27.398722 60.695715 -20.229657 -19.279046 5.498441 11.044364 -93.576403 -48.515242 -97.003301 -120.636731 15.990386 -162.543219 20.038053 45.200064 -21.272006 90.567989 5.266162 -143.864782 172.329465 -14.257582 81.526861 6.257818 -18.179956 2.346398 158.225687 -3.448394 -90.129896 112.03785 -2.853462 -51.196059 43.320243 30.711162 -37.925279 -9.905497 16.376129 27.870362 152.071398 18.066656 -142.251277 157.976635 -22.948984 -151.321798 12.688427 -12.600641 8.763233 -22.242645 5.424382 1.758907 123.429685 -48.608127 112.995236 151.12163 -6.571101 128.649632 -3.643839 8.002032 -1.208757 -60.688319 -65.191248 -10.155574 83.067766 35.224499 114.49797 69.914268 2.705702 178.313842 40.452606 0.529894 11.259486 -30.482585 10.627886 -8.931896 4.259722 47.93778 43.008064 49.376488 -21.743202 -0.687053
-1.0652 61.234500000000004 1.0936 76.055054 87.484464 80.784087 -7.41446 11.476684 -25.719477 5.235299 -11.549357 22.875301 7.591048 31.54903 84.950018 -39.135895 4.207675 -120.596256 14.93763 -5.394981 -39.535318 -2.503608 0.068903 -3.152439 -150.190759 -68.797918 -179.541372 -145.601606 -21.673902 -146.132594 38.977241 76.79658 -132.895444 169.573495 -19.442545 146.407917 107.624409 -55.942266 53.143363 -12.528986 -14.817861 -25.267678 0.458535 8.889626 2.681337 -168.536627 -25.216241 98.062887 6.369169 37.528653 6.996936 -31.435921 60.255532 1.115399 48.637839 75.441463 -34.215148 -22.993802 8.498928 2.050633 -149.801892 66.830326 -158.412083 73.497507 55.323102 -48.59628 -3.354394 -33.918487 3.628795 -61.971673 3.860726 40.489247 -165.982856 -31.397638 -35.785084 163.210867 23.808345 -138.348244 1.156677 7.83086 -2.027157 -8.729213 -21.558975 21.967592 -12.674574 -19.492743 -5.715918 5.49639 -20.095211 16.794335 123.104358 54.927779 -115.218457 -8.648171 -15.44586 12.076785 152.702562 -21.29819 166.94272 -13.162196 54.074947 12.995647 4.577348 39.189949 -20.699386 139.164354 47.235361 153.532617 0.908851 8.548672 -0.054078 -66.456183 -65.321813 -83.837325 -60.025539 64.385509 -17.248294 135.015775 51.406419 -46.849651 85.990229 23.517367 42.936294 -72.921025 41.242628 -18.590122 23.237582 47.232933 43.412323 -130.572274 6.131933 4.655426
-1.1279000000000001 61.233599999999996 0.8734999999999999 43.315386 87.293216 48.521675 -7.457182 11.224948 4.332534 -0.072275 -12.489934 -6.557151 -14.570641 37.488568 -92.32947 45.224703 14.882555 53.301645 18.533718 -5.88617 -34.978817 -4.456253 0.231308 -5.939724 5.00578 -11.459574 -5.140296 39.491946 26.724008 23.814624 -7.648447 -9.927954 62.969852 -6.208849 19.719031 3.961942 -2.398275 -3.219091 -5.938656 -63.646761 14.000627 72.358365 -132.495243 6.624918 115.58684 -5.604412 -7.290532 -15.794996 -149.941293 -72.801361 155.264332 -159.183485 -20.33902 121.07566 -120.433376 -25.063916 -138.05926 -112.177456 -34.328831 -154.160422 -118.225517 -40.230436 -121.748193 26.463881 11.972685 13.75588 137.356465 46.590876 -138.917009 -92.357654 -20.611447 -108.045825 3.736742 -7.078945 -97.320366 6.340656 -18.591745 2.491028 -21.502581 -13.4161 -2.296993 138.631762 -34.004839 -144.833098 2.256606 -4.202297 -5.381094 174.091212 -6.612578 -125.984135 -11.062942 -33.115998 5.310821 172.307509 -1.430833 -139.810384 16.283878 -32.882331 17.804967 150.491358 -0.632164 -174.679721 160.951166 66.834081 164.514151 56.081836 -65.552545 53.447542 -162.606393 65.575675 -11.752492 151.404248 -8.041901 174.710282 -23.462494 -78.400763 -115.448921 -10.916356 5.815923 -78.372611 -28.102877 24.441253 -44.682127 41.267786 11.710532 -81.227768 -42.581948 -41.760966 17.770129 -78.918218 53.266211 -174.452839
-1.2378 60.7047 0.7428 28.008554 86.912708 33.087575 -4.44791 9.170349 -113.072526 9.830717 2.599768 110.151556 -15.24156 32.640599 -63.785485 42.716242 -3.894313 33.63602 11.242386 -3.573718 -35.173188 -3.543872 0.172779 -5.580624 -152.847076 -17.912785 166.183706 147.024307 45.134378 -153.19614 -178.019266 -27.415331 77.986805 167.224863 -27.899548 145.530214 -10.506457 6.640409 -3.538952 -123.803043 -34.414314 101.229329 -157.982454 -43.745839 125.703493 -21.157937 70.690739 9.580178 17.144329 16.6043 -0.819811 168.628265 -39.641603 157.300101 -88.883166 -41.437397 -108.329026 -116.891325 -16.446585 -174.870216 -137.408683 -4.98762 -143.652928 -121.288487 4.282429 -139.509484 -3.990135 -65.216931 11.257529 81.999805 -26.743076 105.953106 175.55204 -18.041683 82.459695 8.096587 -12.204991 1.501047 8.918898 12.349078 -4.008435 125.538343 -35.614236 -131.273506 0.083266 -10.859891 -2.747097 169.545124 -2.999648 -123.558114 169.773447 -29.555008 -144.92526 -0.998306 11.238786 -10.447229 17.813213 -39.55747 19.712182 121.990916 73.391335 -139.725496 22.557697 -19.126137 1.376522 -6.974533 -10.876209 15.09973 -17.587759 10.592359 -7.078299 -34.185252 -76.010874 153.549173 -65.282949 -67.150813 39.266465 122.763482 49.738847 -32.51363 -26.412485 22.528731 -43.928718 38.502768 10.624169 87.521285 36.775658 48.08328 -160.871784 143.926729 -11.741912 -176.280942
-1.3063 60.5973 0.5679 24.454519 86.566229 29.508922 -4.563426 11.639639 -72.040523 11.277925 -4.790022 69.557575 7.516898 30.331503 75.784407 -39.752398 -0.31088 -111.134511 5.681878 -1.871421 -36.435427 -2.187602 0.006804 -0.356388 4.673021 -69.828413 -17.871222 53.009824 37.720962 -17.845744 -17.926674 26.908467 76.102295 -5.123731 10.654221 3.863104 -176.679482 -9.208114 93.919986 -3.675079 -69.132407 -3.283319 -131.692453 6.352607 116.958736 -1.798375 -1.671259 -25.116709 -150.455542 -42.953588 148.569164 20.651819 -2.902133 17.139667 -64.12928 -43.242379 -82.750284 48.676936 -5.594761 -4.77537 1.165371 -10.49726 1.086987 -160.546252 -12.354376 -148.884793 156.261507 -78.264218 179.14226 55.941304 -20.063519 60.886929 172.045237 -3.695306 82.316004 7.056044 -15.310121 2.048787 167.218051 -7.457626 -90.832339 85.366094 -7.463526 -32.463906 24.718343 17.265915 -16.776331 53.186787 68.733789 -34.838318 160.726579 4.750027 -140.73009 151.650425 4.159462 -137.859555 7.720196 11.638879 -0.854785 -6.981852 28.821056 -6.351163 156.742058 75.703311 177.861812 144.952607 20.687408 162.641811 121.923999 58.724312 27.591328 -174.02029 -2.388527 -123.542431 -77.679006 2.893395 156.672031 90.633924 -83.147396 -1.074289 55.238664 2.211024 20.004579 -44.622673 11.04614 168.570591 13.44941 -58.97637 87.344016 95.926952 -18.147246 161.276857
